<?xml version="1.0" encoding="utf-8"?>
<!-- Generator: Adobe Illustrator 24.3.0, SVG Export Plug-In . SVG Version: 6.00 Build 0)  -->
<svg version="1.1" id="Слой_1" xmlns="http://www.w3.org/2000/svg" xmlns:xlink="http://www.w3.org/1999/xlink" x="0px" y="0px"
	 viewBox="0 0 1500 400" style="enable-background:new 0 0 1500 400;" xml:space="preserve">
<style type="text/css">
	.st0{clip-path:url(#SVGID_2_);}
	.st1{fill:url(#SVGID_3_);}
	.st2{fill:url(#SVGID_4_);}
</style>
<g>
	<g>
		<g>
			<g>
				<g>
					<defs>
						<rect id="SVGID_1_" x="-0.8" width="1500.8" height="400"/>
					</defs>
					<clipPath id="SVGID_2_">
						<use xlink:href="#SVGID_1_"  style="overflow:visible;"/>
					</clipPath>
					<g class="st0">
						
							<linearGradient id="SVGID_3_" gradientUnits="userSpaceOnUse" x1="1008.9973" y1="2088.4038" x2="1059.9542" y2="835.4545" gradientTransform="matrix(1 0 0 -1 0 1558)">
							<stop  offset="0" style="stop-color:#98513B"/>
							<stop  offset="0.9368" style="stop-color:#21284E"/>
						</linearGradient>
						<path class="st1" d="M-624.3,81.3c20.5,3.9,353,30.7,353,30.7s247.8-3,282.3-6.8c34.4-3.8,114.6-17.1,136.3-17.1
							C169,88,370.9,50.7,370.9,50.7l64.3-23.3l250,23.4l92.4,6.7l104.1-46.9l175.7,55l83.6,5.5l204.9,20.2
							c0,0,282.6,65.7,331.6,92.3c49,26.5,531.5,109.1,531.5,109.1s488.8,33.8,494.2,73.9s-7.6,294.5-7.6,294.5l-3170.8,67.7
							L-624.3,81.3z"/>
						
							<linearGradient id="SVGID_4_" gradientUnits="userSpaceOnUse" x1="1019.9409" y1="2285.0259" x2="1077.5698" y2="868.0182" gradientTransform="matrix(1 0 0 -1 0 1558)">
							<stop  offset="0" style="stop-color:#98513B"/>
							<stop  offset="0.9368" style="stop-color:#21284E"/>
						</linearGradient>
						<path class="st2" d="M-430.5,190.9c13-2.8,845.2-47.5,845.2-47.5s212.7,13.3,235.8,13.3s219.3-26,240.7-30.7
							c21.4-4.7,165.3,10.9,194.1,10.7s265.6,23.9,292.7,19.1c27.1-4.9,313.6-5.1,326.3-6.4c12.7-1.3,186.4-17.2,185.1-43.1
							c-1.3-25.9,136.8-57.7,163.5-61.3c26.6-3.6,328.3-101.7,356.2-121.8s120.7-81.5,120.7-81.5s43,824.5,0,820.5
							c-43-4-2911.3,44-2911.3,44L-430.5,190.9z"/>
					</g>
				</g>
			</g>
		</g>
	</g>
</g>
</svg>
